<svg id="_002-instagram" data-name="002-instagram" xmlns="http://www.w3.org/2000/svg" width="31.837" height="31.836" viewBox="0 0 31.837 31.836">
  <path id="Tracé_94" data-name="Tracé 94" d="M213.183,210.092A3.092,3.092,0,1,1,210.092,207,3.092,3.092,0,0,1,213.183,210.092Zm0,0" transform="translate(-194.407 -193.94)" fill="#fff"/>
  <path id="Tracé_95" data-name="Tracé 95" d="M150.318,137.622a3.071,3.071,0,0,0-1.76-1.76,5.132,5.132,0,0,0-1.722-.319c-.978-.045-1.271-.054-3.748-.054s-2.77.009-3.748.054a5.135,5.135,0,0,0-1.722.319,3.073,3.073,0,0,0-1.76,1.76,5.133,5.133,0,0,0-.319,1.722c-.045.978-.054,1.271-.054,3.748s.01,2.77.054,3.748a5.131,5.131,0,0,0,.319,1.722,3.071,3.071,0,0,0,1.76,1.76,5.125,5.125,0,0,0,1.722.319c.978.045,1.271.054,3.748.054s2.77-.009,3.748-.054a5.125,5.125,0,0,0,1.722-.319,3.071,3.071,0,0,0,1.76-1.76,5.136,5.136,0,0,0,.319-1.722c.045-.978.054-1.271.054-3.748s-.009-2.77-.054-3.748A5.125,5.125,0,0,0,150.318,137.622Zm-7.23,10.232a4.763,4.763,0,1,1,4.763-4.763A4.763,4.763,0,0,1,143.088,147.854Zm4.951-8.6a1.113,1.113,0,1,1,1.113-1.113A1.113,1.113,0,0,1,148.039,139.254Zm0,0" transform="translate(-127.403 -126.94)" fill="#fff"/>
  <path id="Tracé_96" data-name="Tracé 96" d="M15.918,0A15.918,15.918,0,1,0,31.837,15.918,15.92,15.92,0,0,0,15.918,0ZM25,19.687a6.706,6.706,0,0,1-.425,2.219,4.674,4.674,0,0,1-2.673,2.673A6.711,6.711,0,0,1,19.687,25c-.975.044-1.286.055-3.768.055S13.125,25.048,12.15,25a6.711,6.711,0,0,1-2.219-.425,4.674,4.674,0,0,1-2.673-2.673,6.7,6.7,0,0,1-.425-2.219c-.045-.975-.055-1.286-.055-3.769s.01-2.794.055-3.768a6.707,6.707,0,0,1,.425-2.219A4.677,4.677,0,0,1,9.931,7.258a6.713,6.713,0,0,1,2.219-.425c.975-.044,1.286-.055,3.768-.055s2.794.011,3.768.055a6.714,6.714,0,0,1,2.219.424,4.675,4.675,0,0,1,2.673,2.674A6.705,6.705,0,0,1,25,12.15c.044.975.055,1.286.055,3.768S25.048,18.712,25,19.687Zm0,0" fill="#fff"/>
</svg>
