<svg xmlns="http://www.w3.org/2000/svg" width="31.836" height="31.836" viewBox="0 0 31.836 31.836">
  <path id="_003-linkedin" data-name="003-linkedin" d="M28.957,0H2.88A2.88,2.88,0,0,0,0,2.88V28.956a2.88,2.88,0,0,0,2.88,2.88H28.957a2.88,2.88,0,0,0,2.88-2.88V2.88A2.88,2.88,0,0,0,28.957,0ZM9.852,27.49a.838.838,0,0,1-.838.838H5.446a.838.838,0,0,1-.838-.838V12.535a.838.838,0,0,1,.838-.838H9.013a.838.838,0,0,1,.838.838ZM7.23,10.287A3.389,3.389,0,1,1,10.619,6.9,3.389,3.389,0,0,1,7.23,10.287ZM28.5,27.557a.771.771,0,0,1-.771.771H23.9a.771.771,0,0,1-.771-.771V20.542c0-1.046.307-4.586-2.735-4.586-2.359,0-2.838,2.422-2.934,3.51v8.091a.771.771,0,0,1-.771.771h-3.7a.771.771,0,0,1-.771-.771V12.467a.771.771,0,0,1,.771-.771h3.7a.771.771,0,0,1,.771.771v1.3c.875-1.313,2.175-2.326,4.943-2.326,6.13,0,6.095,5.727,6.095,8.874v7.238Z" fill="#fff"/>
</svg>
